{
	"accessors": [
		{
			"bufferView": 0,
			"byteOffset": 0,
			"componentType": 5126,
			"count": 24,
			"max": [
				1.0,
				1.0,
				1.0
			],
			"min": [
				-1.0,
				-1.0,
				-1.0
			],
			"normalized": false,
			"type": "VEC3"
		},
		{
			"bufferView": 1,
			"byteOffset": 0,
			"componentType": 5126,
			"count": 24,
			"max": [
				0.5,
				0.5,
				0.5
			],
			"min": [
				-0.5,
				-0.5,
				-0.5
			],
			"normalized": false,
			"type": "VEC3"
		},
		{
			"bufferView": 2,
			"byteOffset": 0,
			"componentType": 5123,
			"count": 36,
			"max": [
				23.0
			],
			"min": [
				0.0
			],
			"normalized": false,
			"type": "SCALAR"
		},
		{
			"bufferView": 3,
			"byteOffset": 0,
			"componentType": 5126,
			"count": 961,
			"max": [
				1.0,
				1.0,
				0.9945219159126282
			],
			"min": [
				-1.0,
				-1.0,
				-0.9945219159126282
			],
			"type": "VEC3"
		},
		{
			"bufferView": 4,
			"byteOffset": 0,
			"componentType": 5126,
			"count": 961,
			"max": [
				1.0,
				1.0,
				0.9945219159126282
			],
			"min": [
				-1.0,
				-1.0,
				-0.9945219159126282
			],
			"type": "VEC3"
		},
		{
			"bufferView": 5,
			"byteOffset": 0,
			"componentType": 5126,
			"count": 961,
			"max": [
				1.0,
				1.0
			],
			"min": [
				0.0,
				0.0
			],
			"type": "VEC2"
		},
		{
			"bufferView": 6,
			"byteOffset": 0,
			"componentType": 5123,
			"count": 5400,
			"max": [
				960.0
			],
			"min": [
				0.0
			],
			"normalized": false,
			"type": "SCALAR"
		},
		{
			"bufferView": 7,
			"byteOffset": 0,
			"componentType": 5126,
			"count": 4,
			"max": [
				0.5,
				0.5,
				0.0
			],
			"min": [
				-0.5,
				-0.5,
				0.0
			],
			"type": "VEC3"
		},
		{
			"bufferView": 8,
			"byteOffset": 0,
			"componentType": 5126,
			"count": 4,
			"max": [
				0.0,
				0.0,
				1.0
			],
			"min": [
				0.0,
				0.0,
				1.0
			],
			"type": "VEC3"
		},
		{
			"bufferView": 9,
			"byteOffset": 0,
			"componentType": 5126,
			"count": 4,
			"max": [
				1.0,
				1.0
			],
			"min": [
				0.0,
				0.0
			],
			"type": "VEC2"
		},
		{
			"bufferView": 10,
			"byteOffset": 0,
			"componentType": 5123,
			"count": 6,
			"max": [
				3.0
			],
			"min": [
				0.0
			],
			"normalized": false,
			"type": "SCALAR"
		}
	],
	"asset": {
		"generator": "Gestaltor 2020.2.1 Alpha 'Zuckerwatte' (CI-38fb8ee1*)",
		"version": "2.0"
	},
	"bufferViews": [
		{
			"buffer": 0,
			"byteLength": 288,
			"byteOffset": 0,
			"byteStride": 12,
			"target": 34962
		},
		{
			"buffer": 0,
			"byteLength": 288,
			"byteOffset": 288,
			"byteStride": 12,
			"target": 34962
		},
		{
			"buffer": 0,
			"byteLength": 72,
			"byteOffset": 576,
			"target": 34963
		},
		{
			"buffer": 0,
			"byteLength": 30752,
			"byteOffset": 648,
			"byteStride": 32,
			"target": 34962
		},
		{
			"buffer": 0,
			"byteLength": 30752,
			"byteOffset": 31400,
			"byteStride": 32,
			"target": 34962
		},
		{
			"buffer": 0,
			"byteLength": 30752,
			"byteOffset": 62152,
			"byteStride": 32,
			"target": 34962
		},
		{
			"buffer": 0,
			"byteLength": 10800,
			"byteOffset": 92904,
			"target": 34963
		},
		{
			"buffer": 0,
			"byteLength": 128,
			"byteOffset": 103704,
			"byteStride": 32,
			"target": 34962
		},
		{
			"buffer": 0,
			"byteLength": 128,
			"byteOffset": 103832,
			"byteStride": 32,
			"target": 34962
		},
		{
			"buffer": 0,
			"byteLength": 128,
			"byteOffset": 103960,
			"byteStride": 32,
			"target": 34962
		},
		{
			"buffer": 0,
			"byteLength": 12,
			"byteOffset": 104088,
			"target": 34963
		}
	],
	"buffers": [
		{
			"byteLength": 104100,
			"uri": "data:application/octet-stream;base64,"
		}
	],
	"images": [
		{
			"mimeType": "image/jpeg",
			"uri": "ECOnejo.jpg"
		}
	],
	"materials": [
		{
			"alphaMode": "OPAQUE",
			"doubleSided": true,
			"emissiveFactor": [
				0.0,
				0.0,
				0.0
			],
			"name": "M0",
			"pbrMetallicRoughness": {
				"baseColorFactor": [
					1.0,
					1.0,
					0.49803921580314636,
					1.0
				],
				"metallicFactor": 0.0,
				"roughnessFactor": 1.0
			}
		},
		{
			"alphaMode": "OPAQUE",
			"doubleSided": false,
			"emissiveFactor": [
				0.0,
				0.0,
				0.0
			],
			"pbrMetallicRoughness": {
				"baseColorFactor": [
					0.9176470588235294,
					0.043137254901960784,
					0.043137254901960784,
					1.0
				],
				"metallicFactor": 1.0,
				"roughnessFactor": 1.0
			}
		},
		{
			"alphaMode": "OPAQUE",
			"doubleSided": true,
			"emissiveFactor": [
				0.0,
				0.0,
				0.0
			],
			"pbrMetallicRoughness": {
				"baseColorFactor": [
					0.9176470588235294,
					0.043137254901960784,
					0.043137254901960784,
					1.0
				],
				"metallicFactor": 1.0,
				"roughnessFactor": 1.0
			}
		}
	],
	"meshes": [
		{
			"name": "Mesh0",
			"primitives": [
				{
					"attributes": {
						"NORMAL": 0,
						"POSITION": 1
					},
					"indices": 2,
					"material": 0,
					"mode": 4
				}
			]
		},
		{
			"primitives": [
				{
					"attributes": {
						"NORMAL": 4,
						"POSITION": 3,
						"TEXCOORD_0": 5
					},
					"indices": 6,
					"material": 0,
					"mode": 4
				}
			]
		},
		{
			"primitives": [
				{
					"attributes": {
						"NORMAL": 8,
						"POSITION": 7,
						"TEXCOORD_0": 9
					},
					"indices": 10,
					"material": 2,
					"mode": 4
				}
			]
		}
	],
	"nodes": [
		{
			"mesh": 0,
			"name": "Mesh"
		},
		{
			"children": [
				0
			],
			"matrix": [
				1.0,
				0.0,
				0.0,
				0.0,
				0.0,
				3.422854177870249e-08,
				-0.9999999403953552,
				0.0,
				0.0,
				0.9999999403953552,
				3.422854177870249e-08,
				0.0,
				0.0,
				0.0,
				0.0,
				1.0
			]
		},
		{
			"matrix": [
				1.0,
				0.0,
				0.0,
				0.0,
				0.0,
				1.0,
				0.0,
				0.0,
				0.0,
				0.0,
				1.0,
				0.0,
				0.0,
				1.0,
				0.0,
				1.0
			],
			"mesh": 1,
			"name": "Sphere"
		},
		{
			"matrix": [
				5.0,
				0.0,
				0.0,
				0.0,
				0.0,
				1.7114271599893982e-07,
				5.0,
				0.0,
				0.0,
				-0.9999999403953552,
				3.422854177870249e-08,
				0.0,
				0.0,
				-1.0,
				0.0,
				1.0
			],
			"mesh": 2,
			"name": "Plane"
		}
	],
	"samplers": [
		{}
	],
	"scene": 0,
	"scenes": [
		{
			"name": "Box",
			"nodes": [
				1,
				2,
				3
			]
		}
	],
	"textures": [
		{
			"name": "ECO",
			"source": 0
		},
		{},
		{}
	]
}